<svg id="Слой_2" data-name="Слой 2" xmlns="http://www.w3.org/2000/svg" viewBox="0 0 101 101"><title>Artboard 2 copy 10</title><path d="M98.39,64.93A1.5,1.5,0,0,0,97,64H89.24A24.81,24.81,0,0,0,65.76,39.64a1.52,1.52,0,0,0-.41,0A32.76,32.76,0,0,0,11.78,64H4a1.5,1.5,0,0,0-1.06,2.56L13.81,77.43A18.89,18.89,0,0,0,27.26,83H73.74a18.89,18.89,0,0,0,13.45-5.57L98.06,66.56A1.5,1.5,0,0,0,98.39,64.93ZM86.23,64H77.3A32.65,32.65,0,0,0,68.9,43.09,21.79,21.79,0,0,1,86.23,64ZM44.54,35.21A29.82,29.82,0,0,1,74.3,64H66.58a22,22,0,0,0-44.09,0H14.78A29.82,29.82,0,0,1,44.54,35.21ZM55.4,64a10.88,10.88,0,0,0-21.74,0H25.5a19,19,0,0,1,38.07,0Zm-3,0H36.67A7.88,7.88,0,0,1,52.4,64ZM85.07,75.31A15.91,15.91,0,0,1,73.74,80H27.26a15.91,15.91,0,0,1-11.33-4.69L7.62,67H93.38Z"/><path d="M65.81,29.83A1.5,1.5,0,0,0,67.91,32c.11-.1,10.53-10.54-.57-23.19a1.5,1.5,0,0,0-2.26,2C74.27,21.23,66.17,29.47,65.81,29.83Z"/><path d="M59,19.53a7.31,7.31,0,0,1-4.11,6.61,1.5,1.5,0,0,0,1.22,2.74A10.31,10.31,0,0,0,62,19.47c-.06-3.7-1.76-5.74-3.4-7.72C56.75,9.53,55,7.43,55,2.5a1.5,1.5,0,0,0-3,0,15.49,15.49,0,0,0,4.29,11.17C57.78,15.47,59,16.88,59,19.53Z"/></svg>